# xmcd CD database file
#
# Track frame offsets:
#	150
#	14728
#	28645
#	38407
#	52777
#	74263
#	84942
#	98698
#	109308
#	123441
#	134439
#	149419
#	161342
#	180956
#
# Disc length: 2622 seconds
#
# Revision: 0
# Processed by: cddbd v1.5.1PL2 Copyright (c) Steve Scherf et al.
# Submitted via: CDex 1.51
#
DISCID=ae0a3c0e
DTITLE=Various Artist - Puppet Jazz
DYEAR=1900
DGENRE=Jazz
TTITLE0=Klaus Weiss - Don't Play That Game 1
TTITLE1=Gerhard Narholz - UFO Invasion
TTITLE2=Fred Rabold - Intercity
TTITLE3=Ambros Seelos - Brass Glitter
TTITLE4=Edgar Schlepper - Wake Up In The Morning
TTITLE5=Gus Brendel - Sax on The Rocks
TTITLE6=Berry Lipman - BL Special
TTITLE7=Eugen Illin - Madison Square 1
TTITLE8=Joe Halder - Last Time
TTITLE9=Klaus Weiss - Watch Out 3
TTITLE10=Berry Lipman - Exotic Drums
TTITLE11=Bob Elger - Beach Buggy
TTITLE12=Klaus Esser - Soul Lady
TTITLE13=Ady Zehnpfennig - Easter Afternoon
EXTD=
EXTT0=
EXTT1=
EXTT2=
EXTT3=
EXTT4=
EXTT5=
EXTT6=
EXTT7=
EXTT8=
EXTT9=
EXTT10=
EXTT11=
EXTT12=
EXTT13=
PLAYORDER=
